<svg id="Layer_10" data-name="Layer 10" xmlns="http://www.w3.org/2000/svg" viewBox="0 0 32.4 39.47"><defs><style>.cls-1{fill:#78c383;}.cls-2{fill:#3bb26c;}.cls-3{fill:#39b16c;}</style></defs><title>Zu-c</title><rect class="cls-1" x="19.63" y="27.09" width="6.44" height="5.58"/><polygon class="cls-2" points="29.65 15.19 26.07 15.19 26.07 26.91 26.07 27 26.07 27.09 26.07 32.67 28.77 32.67 31.41 29.89 31.41 27.09 31.41 27 31.41 26.91 31.41 17.27 29.65 15.19"/><polygon class="cls-3" points="19.63 27 19.63 26.91 19.63 19.61 14.45 25.89 14.45 26.91 14.45 27 14.45 27.09 14.45 29.57 17.41 32.67 19.63 32.67 19.63 27.09 19.63 27"/><polygon class="cls-3" points="22.32 6.99 22.39 6.91 28.42 0.08 2.6 0.08 2.6 7.21 22.13 7.21 22.25 7.07 22.32 6.99"/><polygon class="cls-3" points="3.86 39.46 3.88 39.46 3.87 39.44 3.86 39.46"/><polygon class="cls-3" points="10.17 32.35 3.9 39.46 31.89 39.46 31.89 32.33 10.2 32.33 10.17 32.35"/><polygon class="cls-1" points="10.2 32.33 10.24 32.27 10.32 32.19 32.4 7.18 32.34 7.07 32.29 6.99 32.25 6.91 28.49 0 28.42 0.08 22.39 6.91 22.32 6.99 22.25 7.07 22.13 7.21 0.07 32.19 0 32.27 0 32.27 0.04 32.35 0.06 32.35 3.87 39.44 3.88 39.46 3.89 39.47 3.9 39.46 10.17 32.35 10.2 32.33"/></svg>